<svg xmlns="http://www.w3.org/2000/svg" viewBox="0 0 1216 502.31"><defs><style>.cls-1{fill:#001f3f;}</style></defs><title>Fichier 9</title><g id="Calque_2" data-name="Calque 2"><g id="Layer_1" data-name="Layer 1"><path class="cls-1" d="M1161.19,360.78q-31.21,29.13-63.13,46.13t-76.32,17q-34.71,0-64.18-13.53a156.44,156.44,0,0,1-51-37.11,168.06,168.06,0,0,1-33.31-55.16C866,298.65,861.62,278,861.52,257.17c-.11-21.08,5.75-37.5,13-56.74a171.31,171.31,0,0,1,16.2-32.15C841,205.89,795.55,262.92,774.64,291c2.38,26.54,6.81,36.72,16.06,59.34q18.74,45.79,51.69,79.44a241.64,241.64,0,0,0,78.05,53.08q45.09,19.41,98.52,19.42,34,0,62.1-5.89a222.79,222.79,0,0,0,51.69-17.35,258.7,258.7,0,0,0,44-27.06,313.14,313.14,0,0,0,39.2-35.73Z"/><path class="cls-1" d="M318.45,12.69V8.32H231V130.11C284.59,101.64,308.31,48,318.45,12.69Z"/><path class="cls-1" d="M230.26,155.08l.78,171.7q0,48.57-21.16,71.81T154,421.83q-31.22,0-53.76-14.92t-44.06-42L0,422.53q24.29,33.3,61.75,55.85t93.66,22.55q36.08,0,65.91-10.76a137.44,137.44,0,0,0,51.34-32.26q21.51-21.5,33.65-53.77t12.14-75.28L319.4,50.3C309.25,85.6,283.82,126.61,230.26,155.08Z"/><path class="cls-1" d="M1175.76,45.1a236,236,0,0,0-42.32-23.94,247.21,247.21,0,0,0-50.3-15.61Q1055.72,0,1022.43,0c-97,0-182.14,53.92-247.2,122.1-33.09,34.68-62,73.3-87.47,113.82-35.94,57-61.61,122.5-116.61,165-37,28.55-94.85,42.23-133.25,8.47Q415,389.23,415,358q0-24.27,15.26-45.44t49.26-35.73L550.07,349A13.1,13.1,0,0,0,570,347.59l36.47-49.14-52.67-53.54q48.56-18,77.71-48.22T660.61,118a115.05,115.05,0,0,0-9.37-46.49A112.57,112.57,0,0,0,624.88,34,122.79,122.79,0,0,0,584.29,9q-23.6-9-52.73-9Q499,0,473.28,10.06T429.57,36.77a115.18,115.18,0,0,0-27.75,38.85,116.38,116.38,0,0,0-9.71,47.18,134.26,134.26,0,0,0,9.71,51q9.71,23.92,30.53,51-50,21.51-76.67,55.16T329,361.47q0,31.92,12.14,57.59a132.89,132.89,0,0,0,33.3,44.05q21.16,18.39,50,28.1t62.79,9.72q44.38,0,81.17-17a258.16,258.16,0,0,0,68-46.14l10.25,10.47A90.62,90.62,0,0,0,764,458.6L690.67,384C725.42,317.55,762.3,264.71,797.76,223c58-65.25,129.38-144.63,224-144.63q41.63,0,74.23,16.65a273.56,273.56,0,0,1,61.75,43.71l54.81-63.14A329.76,329.76,0,0,0,1175.76,45.1ZM487.51,83.6q15.6-16.29,42-16.3,24.28,0,39.89,14.91T585,122.8q0,27.06-19.42,44.75t-56.89,31.57q-20.15-22.2-28.45-38.16a73.84,73.84,0,0,1-8.32-34.69Q471.9,99.92,487.51,83.6Z"/></g></g></svg>